<?xml version="1.0" encoding="utf-8"?>
<!-- Generator: Adobe Illustrator 24.1.2, SVG Export Plug-In . SVG Version: 6.00 Build 0)  -->
<svg version="1.1" id="Слой_1" xmlns="http://www.w3.org/2000/svg" xmlns:xlink="http://www.w3.org/1999/xlink" x="0px" y="0px"
	 viewBox="0 0 300 150" style="enable-background:new 0 0 300 150;" xml:space="preserve">
<style type="text/css">
	.st0{fill:#53A9D0;}
</style>
<g>
	<path class="st0" d="M66.8,105.2c-6.9,0.6-14.1,1.4-21.4,2.5s-14.7,2.4-22.2,3.9c-1.7,3.7-3.7,8.7-5.9,15
		c-4,11.5-8.6,17.3-13.8,17.3c-1,0-1.9-0.4-2.5-1.3c-0.7-0.8-1-1.9-1-3.2c0-4.7,4.5-17.4,13.6-38.1s20.6-43.7,34.7-69.4h0.1
		C60,10.7,69.7,0,77.3,0c1.6,0,3.4,0.4,5.6,1.3c2.1,0.9,3.6,1.4,4.3,1.6c2.4,0.7,4,1.4,4.9,2.2C93,5.9,93.5,7,93.5,8.3
		c0,1.1-0.6,2.7-1.9,4.9s-2.1,4-2.5,5.6c-1.6,5.2-3.3,17.3-5,36.4s-2.6,39.3-2.6,60.7c0,2.6,0.1,5.4,0.2,8.5s0.2,4.9,0.2,5.4
		c0,2.7-0.7,4.8-2.1,6.3s-3.3,2.2-5.9,2.2c-4.4-0.1-6.7-8.6-6.9-25.7C67,109.4,66.9,106.9,66.8,105.2z M31.2,94.2
		c6.4-0.7,12.6-1.2,18.6-1.6s11.7-0.7,17-0.8c0.6-15.2,1.4-29,2.4-41.6c1-12.5,2.2-24,3.7-34.5C62.1,33,48.3,59,31.3,93.8L31.2,94.2
		z"/>
	<path class="st0" d="M128.8,80.2L128,80c-0.9,0-2,0.4-3,1.1c-1.1,0.7-2.1,1.8-3,3.2c-4.8,6.6-8.9,14.5-12.1,23.5
		s-4.8,16.4-4.8,22.1c0,3.4,0.5,6,1.6,7.7s2.8,2.6,5,2.6c3.6,0,7.4-1.5,11.3-4.4c3.9-3,8.2-7.5,12.8-13.7c2.2-2.9,4.2-6.2,6.1-9.8
		s3.1-5.4,3.5-5.4c0.6,0,1.4,0.4,2.4,1.1c0.9,0.7,1.4,1.5,1.4,2.3c0,1.2-0.6,3.2-1.8,6s-2.9,5.8-4.9,9c-4.1,6.7-8.8,11.9-13.9,15.4
		s-10.4,5.4-15.7,5.4c-5.7,0-10.3-1.8-13.6-5.3s-5.1-8.3-5.1-14.4c0-8.2,2.1-17.6,6.3-28.3c4.2-10.7,9-18.9,14.4-24.6
		c1.4-1.5,2.9-2.5,4.5-3.1s3.4-0.9,5.5-0.9c1.5,0,2.9,0.3,4.2,0.8s2.7,1.3,4.2,2.4c2.2,0.4,4,1.7,5.3,3.7s1.9,4.7,1.9,7.9
		c0,5-1.2,10.3-3.7,15.7c-2.4,5.4-5,8.1-7.6,8.1c-1.5,0-2.8-0.6-4-1.8c-1.2-1.2-1.8-2.5-1.8-4c0-2.3,0.8-5.9,2.3-10.8
		C127.3,86.3,128.3,82.6,128.8,80.2z"/>
	<path class="st0" d="M169.2,122.7c-3.4,6.6-7.1,11.8-11.1,15.4c-4,3.6-8,5.4-11.8,5.4c-3.1,0-5.7-1.3-7.6-3.8s-2.9-5.8-2.9-9.7
		c0-5.2,0.9-10.8,2.8-16.9s4.6-12.3,8.2-18.8c3.5-6.7,7.2-12,11.3-15.9c4-3.9,7.8-5.8,11.3-5.8c1.8,0,3.5,0.5,5.1,1.5
		s3.1,2.7,4.7,4.9c1.4-0.4,2.4-0.7,3.3-0.9c0.8-0.2,1.6-0.2,2.4-0.2c2.4,0,4.4,0.6,6,1.7s2.4,2.5,2.4,4.1c0,1-0.9,3.5-2.8,7.6
		c-1.6,3.3-2.8,6-3.7,8.1c-2.6,6.1-4.6,11.7-6.1,16.8c-1.5,5-2.2,8.6-2.2,10.6c0,1.1,0.1,1.9,0.4,2.3s0.8,0.7,1.4,0.7
		c1,0,2.5-1.1,4.3-3.3c1.9-2.2,5.1-6.7,9.5-13.5c0.8-1.2,1.8-2.8,2.9-4.6c1.2-2,2-3,2.6-3c0.8,0,1.5,0.6,2.2,1.8
		c0.8,1.2,1.1,2.2,1.1,3.2c0,1.2-1.1,3.8-3.3,7.8c-2.2,4.1-4.9,8.3-8.1,12.8c-2.4,3.4-4.7,5.9-6.7,7.3c-2,1.4-4.1,2.1-6.3,2.1
		c-3,0-5.3-1.1-6.9-3.4s-2.4-5.6-2.4-9.8c0-1.2,0-2.1,0.1-2.7C169.1,123.7,169.1,123.2,169.2,122.7z M175.8,88.1
		c0-1-0.3-1.8-0.8-2.5s-1.3-0.9-2.2-0.9c-2.3,0-5,1.7-8,5c-3,3.4-6,8-9,14c-2.9,5.8-5.1,11.2-6.8,16.4s-2.6,9-2.6,11.7
		c0,0.9,0.1,1.6,0.4,2c0.3,0.4,0.7,0.6,1.2,0.6c1.4,0,3.3-1.3,5.8-3.8c2.5-2.6,5-5.9,7.6-10.1c4-6.4,7.4-13,10.2-19.8
		C174.4,93.9,175.8,89.7,175.8,88.1z"/>
	<path class="st0" d="M224,128.1c-3,6.6-6.3,11.9-9.9,15.9s-6.9,6-9.8,6c-3.3,0-6.1-1.8-8.4-5.4s-3.5-8.1-3.5-13.4
		c0-7,1.9-14.8,5.6-23.5s8.7-16.4,14.8-23.2c1.7-1.8,3.2-3.1,4.6-3.9s2.7-1.3,4-1.3c1.6,0,3.3,0.5,5.1,1.6s3.9,2.6,6,4.7
		c2.4-7.2,5.4-16.6,9-28.1c6.7-21.4,11.6-32.1,14.6-32.1c2.2,0,4.1,0.5,5.6,1.5s2.2,2.2,2.2,3.7s-1.3,5-3.8,10.7
		c-1.8,4-3.2,7.3-4.2,9.8c-6.5,16.2-11.8,31.5-15.7,45.8s-5.9,24.5-5.9,30.7c0,1.4,0.2,2.5,0.6,3.3s0.9,1.2,1.6,1.2
		c1.2,0,2.6-1,4.3-3s4.2-5.7,7.5-11c0.7-1.1,1.4-2.5,2.2-4.3c1.1-2.3,2-3.4,2.9-3.4c0.5,0,1,0.2,1.4,0.6s0.6,0.9,0.6,1.4
		c0,0.9-0.4,2.3-1.2,4.4s-2,4.7-3.6,7.9c-3.1,6.3-5.9,10.8-8.5,13.5s-5.3,4.1-8.3,4.1c-2.9,0-5.3-1.2-7-3.7S224.3,132.6,224,128.1z
		 M231,91c-0.8-1-1.5-1.8-2.1-2.2c-0.7-0.4-1.4-0.7-2.1-0.7c-1.6,0-3.5,1.2-5.6,3.5s-4.7,6.1-7.9,11.3c-3.3,5.6-6,11.3-7.9,17.2
		s-2.9,11-2.9,15.1c0,1.3,0.3,2.5,1,3.4c0.7,1,1.5,1.5,2.4,1.5c2.9,0,6.8-4.6,11.6-13.7C222.2,117.3,226.7,105.5,231,91z"/>
	<path class="st0" d="M260.3,111.7c-0.5,1.9-0.8,3.8-1.1,5.8c-0.2,1.9-0.4,4-0.4,6.2c0,4.2,0.5,7.3,1.6,9.5c1,2.1,2.6,3.2,4.6,3.2
		c3.8,0,8.3-2.6,13.5-7.7c5.2-5.1,9.7-11.6,13.6-19.4c0.3-0.7,0.8-1.6,1.4-3c1.4-3,2.4-4.5,3.2-4.5s1.5,0.4,2.1,1.3
		c0.7,0.8,1,1.8,1,3c0,1.5-0.8,3.9-2.5,7.2s-3.8,6.9-6.5,10.7c-5,6.9-9.7,11.9-14.1,14.9s-9.1,4.5-14,4.5c-5.2,0-9.2-1.6-11.8-4.9
		c-2.6-3.3-3.9-8.1-3.9-14.6c0-6.9,1.5-15.1,4.5-24.6c3-9.6,6.9-18,11.6-25.4c1.5-2.3,3.1-4.1,4.9-5.4c1.7-1.2,3.5-1.9,5.1-1.9
		c1,0.1,1.9,0.3,2.7,0.6s1.9,0.9,3,1.7c1,0.3,2.2,0.7,3.7,1.1c4.1,1.2,6.1,3.8,6.1,7.9c0,9.2-2.4,17.6-7.2,25.3s-9.8,11.5-15,11.5
		c-1.1,0-2.2-0.3-3.2-0.8C262.3,113.5,261.3,112.7,260.3,111.7z M267.6,107.8c2.2,0,4.5-2.7,6.7-8s3.3-10.6,3.3-15.8
		c0-0.9-0.3-1.7-0.8-2.3c-0.5-0.7-1.1-1-1.8-1c-1.9,0-4.3,2.6-7.1,7.8c-2.9,5.2-4.3,9.4-4.3,12.7c0,2,0.4,3.7,1.1,4.9
		C265.5,107.2,266.4,107.8,267.6,107.8z"/>
</g>
</svg>
